# xmcd
#
# Track frame offsets: 
#        150
#        17407
#        35002
#        48660
#        65477
#        83962
#        99140
#        122197
#        138162
#        149135
#
# Disc length: 2209 seconds
#
# Revision: 2
# Processed by: cddbd v1.5.2PL0 Copyright (c) Steve Scherf et al.
# Submitted via: ExactAudioCopy v0.99pb5
#
DISCID=8b089f0a
DTITLE=Downchild Blues Band - We Deliver
DYEAR=1980
DGENRE=Blues
TTITLE0=It's A Matter Of Time
TTITLE1=I Came For Your Daugther
TTITLE2=Understanding And Affection
TTITLE3=I've Been A Fool
TTITLE4=Tryin' To Keep Her 88's Straight
TTITLE5=Oh! Oh!
TTITLE6=I'm Alone
TTITLE7=Kiss Face
TTITLE8=Summertime Blues
TTITLE9=A Woman's Ways
EXTD=
EXTT0=
EXTT1=
EXTT2=
EXTT3=
EXTT4=
EXTT5=
EXTT6=
EXTT7=
EXTT8=
EXTT9=
PLAYORDER=
